<?xml version="1.0" encoding="utf-8"?>
<!-- Generator: Adobe Illustrator 15.0.0, SVG Export Plug-In . SVG Version: 6.00 Build 0)  -->
<!DOCTYPE svg PUBLIC "-//W3C//DTD SVG 1.1//EN" "http://www.w3.org/Graphics/SVG/1.1/DTD/svg11.dtd">
<svg version="1.1" id="Layer_1" xmlns="http://www.w3.org/2000/svg" xmlns:xlink="http://www.w3.org/1999/xlink" x="0px" y="0px"
	 width="1024px" height="1024px" viewBox="0 0 1024 1024" enable-background="new 0 0 1024 1024" xml:space="preserve">
<g>
	<path fill="#3A1888" d="M325.179,831.317c50.771,50.76,185.917,188.526,185.854,188.668
		c-0.493,0.898,134.257-134.398,187.928-188.037L511.749,644.747L325.179,831.317z"/>
	<path fill="#03A1C4" d="M511.749,644.747l187.212,187.201c0.277-0.312,0.62-0.664,0.922-0.941l187.029-187.04L699.721,456.771
		L511.749,644.747z"/>
	<path fill="#05D0DF" d="M886.912,643.967l0.479-0.483c103.46-103.447,103.544-271.109,0.312-374.685L699.721,456.771
		L886.912,643.967z"/>
	<path fill="#761FE8" d="M323.767,456.771L137.229,643.303c0.053,0.062,0.085,0.126,0.15,0.181l187.49,187.523
		c0.106,0.096,0.213,0.192,0.31,0.311l186.57-186.57L323.767,456.771z"/>
	<path fill="#FFAA01" d="M511.749,268.787l187.972,187.984l187.982-187.972c-0.15-0.107-0.204-0.215-0.312-0.321L699.883,80.976
		c-0.044-0.054-0.108-0.106-0.162-0.16L511.749,268.787z"/>
	<path fill="#F1175D" d="M136.438,269.439C33.9,373.016,34.157,540.058,137.229,643.303l186.538-186.532L136.438,269.439z"/>
	<path fill="#FB3A1B" d="M511.749,268.787L324.409,81.447l-187.03,187.03c-0.322,0.321-0.61,0.664-0.942,0.962l187.33,187.331
		L511.749,268.787z"/>
	<path fill="#FBC935" d="M699.721,80.816C596.135-22.578,428.38-22.523,324.87,80.976l-0.46,0.471l187.34,187.339L699.721,80.816z"
		/>
</g>
</svg>
